<mxfile host="app.diagrams.net" modified="2024-06-28T16:42:04.213Z" agent="Mozilla/5.0 (Windows NT 10.0; Win64; x64) AppleWebKit/537.36 (KHTML, like Gecko) Chrome/126.0.0.0 Safari/537.36" etag="l6izPfEHIoTy1mHHpiQg" version="24.6.4" type="device">
  <diagram name="Page-1" id="YfLZeL-RubbJot_u5SUt">
    <mxGraphModel dx="1120" dy="434" grid="1" gridSize="10" guides="1" tooltips="1" connect="1" arrows="1" fold="1" page="1" pageScale="1" pageWidth="827" pageHeight="1169" math="0" shadow="0">
      <root>
        <mxCell id="0" />
        <mxCell id="1" parent="0" />
        <mxCell id="Lzn1jySnu3NTndvRrOIX-27" value="" style="rounded=0;whiteSpace=wrap;html=1;" vertex="1" parent="1">
          <mxGeometry x="120" width="480" height="1760" as="geometry" />
        </mxCell>
        <mxCell id="zj4SvAih0t7Ue7XdVl9X-1" value="Start" style="ellipse;whiteSpace=wrap;html=1;" parent="1" vertex="1">
          <mxGeometry x="300" y="10" width="120" height="80" as="geometry" />
        </mxCell>
        <mxCell id="zj4SvAih0t7Ue7XdVl9X-2" value="Login&amp;nbsp;" style="rounded=0;whiteSpace=wrap;html=1;" parent="1" vertex="1">
          <mxGeometry x="280" y="160" width="160" height="60" as="geometry" />
        </mxCell>
        <mxCell id="zj4SvAih0t7Ue7XdVl9X-3" value="Database" style="strokeWidth=2;html=1;shape=mxgraph.flowchart.database;whiteSpace=wrap;" parent="1" vertex="1">
          <mxGeometry x="315" y="290" width="90" height="90" as="geometry" />
        </mxCell>
        <mxCell id="zj4SvAih0t7Ue7XdVl9X-9" style="edgeStyle=orthogonalEdgeStyle;rounded=0;orthogonalLoop=1;jettySize=auto;html=1;exitX=0.5;exitY=1;exitDx=0;exitDy=0;exitPerimeter=0;" parent="1" source="zj4SvAih0t7Ue7XdVl9X-4" edge="1">
          <mxGeometry relative="1" as="geometry">
            <mxPoint x="360" y="650" as="targetPoint" />
          </mxGeometry>
        </mxCell>
        <mxCell id="Lzn1jySnu3NTndvRrOIX-22" value="yes" style="edgeLabel;html=1;align=center;verticalAlign=middle;resizable=0;points=[];" vertex="1" connectable="0" parent="zj4SvAih0t7Ue7XdVl9X-9">
          <mxGeometry x="-0.208" y="-2" relative="1" as="geometry">
            <mxPoint as="offset" />
          </mxGeometry>
        </mxCell>
        <mxCell id="zj4SvAih0t7Ue7XdVl9X-4" value="Is user Admin" style="strokeWidth=2;html=1;shape=mxgraph.flowchart.decision;whiteSpace=wrap;" parent="1" vertex="1">
          <mxGeometry x="290" y="460" width="140" height="140" as="geometry" />
        </mxCell>
        <mxCell id="zj4SvAih0t7Ue7XdVl9X-5" value="" style="endArrow=classic;html=1;rounded=0;exitX=0.5;exitY=1;exitDx=0;exitDy=0;entryX=0.5;entryY=0;entryDx=0;entryDy=0;" parent="1" source="zj4SvAih0t7Ue7XdVl9X-1" target="zj4SvAih0t7Ue7XdVl9X-2" edge="1">
          <mxGeometry width="50" height="50" relative="1" as="geometry">
            <mxPoint x="390" y="250" as="sourcePoint" />
            <mxPoint x="440" y="200" as="targetPoint" />
          </mxGeometry>
        </mxCell>
        <mxCell id="zj4SvAih0t7Ue7XdVl9X-6" value="" style="endArrow=classic;html=1;rounded=0;exitX=0.5;exitY=1;exitDx=0;exitDy=0;entryX=0.5;entryY=0;entryDx=0;entryDy=0;" parent="1" edge="1">
          <mxGeometry width="50" height="50" relative="1" as="geometry">
            <mxPoint x="359.5" y="220" as="sourcePoint" />
            <mxPoint x="359.5" y="290" as="targetPoint" />
          </mxGeometry>
        </mxCell>
        <mxCell id="zj4SvAih0t7Ue7XdVl9X-8" value="Check Database" style="edgeLabel;html=1;align=center;verticalAlign=middle;resizable=0;points=[];" parent="zj4SvAih0t7Ue7XdVl9X-6" vertex="1" connectable="0">
          <mxGeometry x="0.0286" y="2" relative="1" as="geometry">
            <mxPoint as="offset" />
          </mxGeometry>
        </mxCell>
        <mxCell id="zj4SvAih0t7Ue7XdVl9X-7" value="" style="endArrow=classic;html=1;rounded=0;exitX=0.5;exitY=1;exitDx=0;exitDy=0;entryX=0.5;entryY=0;entryDx=0;entryDy=0;exitPerimeter=0;" parent="1" source="zj4SvAih0t7Ue7XdVl9X-3" edge="1">
          <mxGeometry width="50" height="50" relative="1" as="geometry">
            <mxPoint x="359.5" y="390" as="sourcePoint" />
            <mxPoint x="359.5" y="460" as="targetPoint" />
            <Array as="points">
              <mxPoint x="359.5" y="440" />
            </Array>
          </mxGeometry>
        </mxCell>
        <mxCell id="zj4SvAih0t7Ue7XdVl9X-10" value="Check For Update&amp;nbsp;" style="rounded=0;whiteSpace=wrap;html=1;" parent="1" vertex="1">
          <mxGeometry x="300" y="650" width="120" height="60" as="geometry" />
        </mxCell>
        <mxCell id="Lzn1jySnu3NTndvRrOIX-2" value="" style="endArrow=classic;html=1;rounded=0;exitX=0.5;exitY=1;exitDx=0;exitDy=0;" edge="1" parent="1" source="zj4SvAih0t7Ue7XdVl9X-10">
          <mxGeometry width="50" height="50" relative="1" as="geometry">
            <mxPoint x="390" y="946" as="sourcePoint" />
            <mxPoint x="360" y="800" as="targetPoint" />
          </mxGeometry>
        </mxCell>
        <mxCell id="Lzn1jySnu3NTndvRrOIX-4" value="Any Verification request" style="rhombus;whiteSpace=wrap;html=1;" vertex="1" parent="1">
          <mxGeometry x="294" y="920" width="120" height="130" as="geometry" />
        </mxCell>
        <mxCell id="Lzn1jySnu3NTndvRrOIX-7" value="Verify Hotel" style="rounded=0;whiteSpace=wrap;html=1;" vertex="1" parent="1">
          <mxGeometry x="294" y="1109" width="120" height="60" as="geometry" />
        </mxCell>
        <mxCell id="Lzn1jySnu3NTndvRrOIX-9" value="Manages Hotel And Rooms" style="rounded=0;whiteSpace=wrap;html=1;" vertex="1" parent="1">
          <mxGeometry x="294" y="1260" width="120" height="60" as="geometry" />
        </mxCell>
        <mxCell id="Lzn1jySnu3NTndvRrOIX-11" value="Checks reports" style="rounded=0;whiteSpace=wrap;html=1;" vertex="1" parent="1">
          <mxGeometry x="290" y="1380" width="120" height="60" as="geometry" />
        </mxCell>
        <mxCell id="Lzn1jySnu3NTndvRrOIX-13" value="Add Hotel user" style="rounded=0;whiteSpace=wrap;html=1;" vertex="1" parent="1">
          <mxGeometry x="300" y="800" width="120" height="60" as="geometry" />
        </mxCell>
        <mxCell id="Lzn1jySnu3NTndvRrOIX-14" value="" style="endArrow=classic;html=1;rounded=0;exitX=0.45;exitY=1;exitDx=0;exitDy=0;exitPerimeter=0;entryX=0.5;entryY=0;entryDx=0;entryDy=0;" edge="1" parent="1" source="Lzn1jySnu3NTndvRrOIX-13" target="Lzn1jySnu3NTndvRrOIX-4">
          <mxGeometry width="50" height="50" relative="1" as="geometry">
            <mxPoint x="390" y="1060" as="sourcePoint" />
            <mxPoint x="440" y="1010" as="targetPoint" />
          </mxGeometry>
        </mxCell>
        <mxCell id="Lzn1jySnu3NTndvRrOIX-15" value="" style="endArrow=classic;html=1;rounded=0;exitX=0.5;exitY=1;exitDx=0;exitDy=0;entryX=0.5;entryY=0;entryDx=0;entryDy=0;" edge="1" parent="1" source="Lzn1jySnu3NTndvRrOIX-4" target="Lzn1jySnu3NTndvRrOIX-7">
          <mxGeometry width="50" height="50" relative="1" as="geometry">
            <mxPoint x="390" y="1160" as="sourcePoint" />
            <mxPoint x="440" y="1110" as="targetPoint" />
          </mxGeometry>
        </mxCell>
        <mxCell id="Lzn1jySnu3NTndvRrOIX-19" value="Yes" style="edgeLabel;html=1;align=center;verticalAlign=middle;resizable=0;points=[];" vertex="1" connectable="0" parent="Lzn1jySnu3NTndvRrOIX-15">
          <mxGeometry x="-0.2542" y="4" relative="1" as="geometry">
            <mxPoint as="offset" />
          </mxGeometry>
        </mxCell>
        <mxCell id="Lzn1jySnu3NTndvRrOIX-16" value="" style="endArrow=classic;html=1;rounded=0;exitX=0.5;exitY=1;exitDx=0;exitDy=0;entryX=0.5;entryY=0;entryDx=0;entryDy=0;" edge="1" parent="1" target="Lzn1jySnu3NTndvRrOIX-9">
          <mxGeometry width="50" height="50" relative="1" as="geometry">
            <mxPoint x="353.5" y="1169" as="sourcePoint" />
            <mxPoint x="353.5" y="1228" as="targetPoint" />
          </mxGeometry>
        </mxCell>
        <mxCell id="Lzn1jySnu3NTndvRrOIX-17" value="" style="endArrow=classic;html=1;rounded=0;exitX=0.5;exitY=1;exitDx=0;exitDy=0;entryX=0.5;entryY=0;entryDx=0;entryDy=0;" edge="1" parent="1">
          <mxGeometry width="50" height="50" relative="1" as="geometry">
            <mxPoint x="353.5" y="1320" as="sourcePoint" />
            <mxPoint x="353.5" y="1379" as="targetPoint" />
          </mxGeometry>
        </mxCell>
        <mxCell id="Lzn1jySnu3NTndvRrOIX-18" value="" style="endArrow=classic;html=1;rounded=0;edgeStyle=orthogonalEdgeStyle;exitX=1;exitY=0.5;exitDx=0;exitDy=0;" edge="1" parent="1" source="Lzn1jySnu3NTndvRrOIX-4">
          <mxGeometry width="50" height="50" relative="1" as="geometry">
            <mxPoint x="430" y="1000" as="sourcePoint" />
            <mxPoint x="354" y="1210" as="targetPoint" />
            <Array as="points">
              <mxPoint x="440" y="985" />
              <mxPoint x="440" y="1210" />
            </Array>
          </mxGeometry>
        </mxCell>
        <mxCell id="Lzn1jySnu3NTndvRrOIX-20" value="No" style="text;html=1;align=center;verticalAlign=middle;resizable=0;points=[];autosize=1;strokeColor=none;fillColor=none;" vertex="1" parent="1">
          <mxGeometry x="420" y="968" width="40" height="30" as="geometry" />
        </mxCell>
        <mxCell id="Lzn1jySnu3NTndvRrOIX-21" value="" style="endArrow=classic;html=1;rounded=0;exitX=0.5;exitY=1;exitDx=0;exitDy=0;" edge="1" parent="1" source="Lzn1jySnu3NTndvRrOIX-11">
          <mxGeometry width="50" height="50" relative="1" as="geometry">
            <mxPoint x="390" y="1520" as="sourcePoint" />
            <mxPoint x="350" y="1520" as="targetPoint" />
          </mxGeometry>
        </mxCell>
        <mxCell id="Lzn1jySnu3NTndvRrOIX-23" value="" style="endArrow=classic;html=1;rounded=0;exitX=0;exitY=0.5;exitDx=0;exitDy=0;exitPerimeter=0;edgeStyle=orthogonalEdgeStyle;" edge="1" parent="1" source="zj4SvAih0t7Ue7XdVl9X-4">
          <mxGeometry width="50" height="50" relative="1" as="geometry">
            <mxPoint x="280" y="530" as="sourcePoint" />
            <mxPoint x="360" y="130" as="targetPoint" />
            <Array as="points">
              <mxPoint x="260" y="530" />
              <mxPoint x="260" y="130" />
              <mxPoint x="361" y="130" />
            </Array>
          </mxGeometry>
        </mxCell>
        <mxCell id="Lzn1jySnu3NTndvRrOIX-25" value="No" style="edgeLabel;html=1;align=center;verticalAlign=middle;resizable=0;points=[];" vertex="1" connectable="0" parent="Lzn1jySnu3NTndvRrOIX-23">
          <mxGeometry x="-0.7208" relative="1" as="geometry">
            <mxPoint as="offset" />
          </mxGeometry>
        </mxCell>
        <mxCell id="Lzn1jySnu3NTndvRrOIX-26" value="End" style="ellipse;whiteSpace=wrap;html=1;" vertex="1" parent="1">
          <mxGeometry x="285" y="1520" width="120" height="80" as="geometry" />
        </mxCell>
      </root>
    </mxGraphModel>
  </diagram>
</mxfile>
